solid ASCII
  facet normal -9.937122e-01 0.000000e+00 1.119645e-01
    outer loop
      vertex   6.470000e+01 -9.414000e+01 9.500000e+00
      vertex   6.470000e+01 -9.614000e+01 9.500000e+00
      vertex   6.476268e+01 -9.414000e+01 1.005630e+01
    endloop
  endfacet
  facet normal -9.937122e-01 0.000000e+00 1.119645e-01
    outer loop
      vertex   6.476268e+01 -9.414000e+01 1.005630e+01
      vertex   6.470000e+01 -9.614000e+01 9.500000e+00
      vertex   6.476268e+01 -9.614000e+01 1.005630e+01
    endloop
  endfacet
  facet normal -9.438833e-01 0.000000e+00 3.302791e-01
    outer loop
      vertex   6.476268e+01 -9.414000e+01 1.005630e+01
      vertex   6.476268e+01 -9.614000e+01 1.005630e+01
      vertex   6.494758e+01 -9.414000e+01 1.058471e+01
    endloop
  endfacet
  facet normal -9.438833e-01 0.000000e+00 3.302791e-01
    outer loop
      vertex   6.494758e+01 -9.414000e+01 1.058471e+01
      vertex   6.476268e+01 -9.614000e+01 1.005630e+01
      vertex   6.494758e+01 -9.614000e+01 1.058471e+01
    endloop
  endfacet
  facet normal -8.467242e-01 0.000000e+00 5.320321e-01
    outer loop
      vertex   6.494758e+01 -9.414000e+01 1.058471e+01
      vertex   6.494758e+01 -9.614000e+01 1.058471e+01
      vertex   6.524542e+01 -9.414000e+01 1.105872e+01
    endloop
  endfacet
  facet normal -8.467242e-01 0.000000e+00 5.320321e-01
    outer loop
      vertex   6.524542e+01 -9.414000e+01 1.105872e+01
      vertex   6.494758e+01 -9.614000e+01 1.058471e+01
      vertex   6.524542e+01 -9.614000e+01 1.105872e+01
    endloop
  endfacet
  facet normal -7.071068e-01 0.000000e+00 7.071068e-01
    outer loop
      vertex   6.524542e+01 -9.414000e+01 1.105872e+01
      vertex   6.524542e+01 -9.614000e+01 1.105872e+01
      vertex   6.564128e+01 -9.414000e+01 1.145458e+01
    endloop
  endfacet
  facet normal -7.071068e-01 0.000000e+00 7.071068e-01
    outer loop
      vertex   6.564128e+01 -9.414000e+01 1.145458e+01
      vertex   6.524542e+01 -9.614000e+01 1.105872e+01
      vertex   6.564128e+01 -9.614000e+01 1.145458e+01
    endloop
  endfacet
  facet normal -5.320321e-01 0.000000e+00 8.467242e-01
    outer loop
      vertex   6.564128e+01 -9.414000e+01 1.145458e+01
      vertex   6.564128e+01 -9.614000e+01 1.145458e+01
      vertex   6.611529e+01 -9.414000e+01 1.175242e+01
    endloop
  endfacet
  facet normal -5.320321e-01 0.000000e+00 8.467242e-01
    outer loop
      vertex   6.611529e+01 -9.414000e+01 1.175242e+01
      vertex   6.564128e+01 -9.614000e+01 1.145458e+01
      vertex   6.611529e+01 -9.614000e+01 1.175242e+01
    endloop
  endfacet
  facet normal -3.302791e-01 0.000000e+00 9.438833e-01
    outer loop
      vertex   6.611529e+01 -9.414000e+01 1.175242e+01
      vertex   6.611529e+01 -9.614000e+01 1.175242e+01
      vertex   6.664370e+01 -9.414000e+01 1.193732e+01
    endloop
  endfacet
  facet normal -3.302791e-01 0.000000e+00 9.438833e-01
    outer loop
      vertex   6.664370e+01 -9.414000e+01 1.193732e+01
      vertex   6.611529e+01 -9.614000e+01 1.175242e+01
      vertex   6.664370e+01 -9.614000e+01 1.193732e+01
    endloop
  endfacet
  facet normal -1.119645e-01 0.000000e+00 9.937122e-01
    outer loop
      vertex   6.664370e+01 -9.414000e+01 1.193732e+01
      vertex   6.664370e+01 -9.614000e+01 1.193732e+01
      vertex   6.720000e+01 -9.414000e+01 1.200000e+01
    endloop
  endfacet
  facet normal -1.119645e-01 0.000000e+00 9.937122e-01
    outer loop
      vertex   6.720000e+01 -9.414000e+01 1.200000e+01
      vertex   6.664370e+01 -9.614000e+01 1.193732e+01
      vertex   6.720000e+01 -9.614000e+01 1.200000e+01
    endloop
  endfacet
  facet normal -1.000000e+00 0.000000e+00 0.000000e+00
    outer loop
      vertex   6.470000e+01 -9.614000e+01 -4.000000e+00
      vertex   6.470000e+01 -9.614000e+01 9.500000e+00
      vertex   6.470000e+01 -9.414000e+01 -4.000000e+00
    endloop
  endfacet
  facet normal -1.000000e+00 0.000000e+00 0.000000e+00
    outer loop
      vertex   6.470000e+01 -9.414000e+01 -4.000000e+00
      vertex   6.470000e+01 -9.614000e+01 9.500000e+00
      vertex   6.470000e+01 -9.414000e+01 9.500000e+00
    endloop
  endfacet
  facet normal 0.000000e+00 4.440892e-16 -1.000000e+00
    outer loop
      vertex   1.681000e+02 -9.614000e+01 -4.000000e+00
      vertex   6.470000e+01 -9.614000e+01 -4.000000e+00
      vertex   1.681000e+02 -9.414000e+01 -4.000000e+00
    endloop
  endfacet
  facet normal 0.000000e+00 4.440892e-16 -1.000000e+00
    outer loop
      vertex   1.681000e+02 -9.414000e+01 -4.000000e+00
      vertex   6.470000e+01 -9.614000e+01 -4.000000e+00
      vertex   6.470000e+01 -9.414000e+01 -4.000000e+00
    endloop
  endfacet
  facet normal 1.000000e+00 -0.000000e+00 0.000000e+00
    outer loop
      vertex   1.681000e+02 -9.614000e+01 2.850000e+01
      vertex   1.681000e+02 -9.614000e+01 -4.000000e+00
      vertex   1.681000e+02 -9.414000e+01 2.850000e+01
    endloop
  endfacet
  facet normal 1.000000e+00 0.000000e+00 0.000000e+00
    outer loop
      vertex   1.681000e+02 -9.414000e+01 2.850000e+01
      vertex   1.681000e+02 -9.614000e+01 -4.000000e+00
      vertex   1.681000e+02 -9.414000e+01 -4.000000e+00
    endloop
  endfacet
  facet normal 1.305262e-01 0.000000e+00 9.914449e-01
    outer loop
      vertex   1.661000e+02 -9.414000e+01 3.050000e+01
      vertex   1.661000e+02 -9.614000e+01 3.050000e+01
      vertex   1.666176e+02 -9.414000e+01 3.043185e+01
    endloop
  endfacet
  facet normal 1.305262e-01 0.000000e+00 9.914449e-01
    outer loop
      vertex   1.666176e+02 -9.414000e+01 3.043185e+01
      vertex   1.661000e+02 -9.614000e+01 3.050000e+01
      vertex   1.666176e+02 -9.614000e+01 3.043185e+01
    endloop
  endfacet
  facet normal 3.826834e-01 0.000000e+00 9.238795e-01
    outer loop
      vertex   1.666176e+02 -9.414000e+01 3.043185e+01
      vertex   1.666176e+02 -9.614000e+01 3.043185e+01
      vertex   1.671000e+02 -9.414000e+01 3.023205e+01
    endloop
  endfacet
  facet normal 3.826834e-01 0.000000e+00 9.238795e-01
    outer loop
      vertex   1.671000e+02 -9.414000e+01 3.023205e+01
      vertex   1.666176e+02 -9.614000e+01 3.043185e+01
      vertex   1.671000e+02 -9.614000e+01 3.023205e+01
    endloop
  endfacet
  facet normal 6.087614e-01 0.000000e+00 7.933533e-01
    outer loop
      vertex   1.671000e+02 -9.414000e+01 3.023205e+01
      vertex   1.671000e+02 -9.614000e+01 3.023205e+01
      vertex   1.675142e+02 -9.414000e+01 2.991421e+01
    endloop
  endfacet
  facet normal 6.087614e-01 0.000000e+00 7.933533e-01
    outer loop
      vertex   1.675142e+02 -9.414000e+01 2.991421e+01
      vertex   1.671000e+02 -9.614000e+01 3.023205e+01
      vertex   1.675142e+02 -9.614000e+01 2.991421e+01
    endloop
  endfacet
  facet normal 7.933533e-01 0.000000e+00 6.087614e-01
    outer loop
      vertex   1.675142e+02 -9.414000e+01 2.991421e+01
      vertex   1.675142e+02 -9.614000e+01 2.991421e+01
      vertex   1.678321e+02 -9.414000e+01 2.950000e+01
    endloop
  endfacet
  facet normal 7.933533e-01 0.000000e+00 6.087614e-01
    outer loop
      vertex   1.678321e+02 -9.414000e+01 2.950000e+01
      vertex   1.675142e+02 -9.614000e+01 2.991421e+01
      vertex   1.678321e+02 -9.614000e+01 2.950000e+01
    endloop
  endfacet
  facet normal 9.238795e-01 0.000000e+00 3.826834e-01
    outer loop
      vertex   1.678321e+02 -9.414000e+01 2.950000e+01
      vertex   1.678321e+02 -9.614000e+01 2.950000e+01
      vertex   1.680319e+02 -9.414000e+01 2.901764e+01
    endloop
  endfacet
  facet normal 9.238795e-01 0.000000e+00 3.826834e-01
    outer loop
      vertex   1.680319e+02 -9.414000e+01 2.901764e+01
      vertex   1.678321e+02 -9.614000e+01 2.950000e+01
      vertex   1.680319e+02 -9.614000e+01 2.901764e+01
    endloop
  endfacet
  facet normal 9.914449e-01 0.000000e+00 1.305262e-01
    outer loop
      vertex   1.680319e+02 -9.414000e+01 2.901764e+01
      vertex   1.680319e+02 -9.614000e+01 2.901764e+01
      vertex   1.681000e+02 -9.414000e+01 2.850000e+01
    endloop
  endfacet
  facet normal 9.914449e-01 0.000000e+00 1.305262e-01
    outer loop
      vertex   1.681000e+02 -9.414000e+01 2.850000e+01
      vertex   1.680319e+02 -9.614000e+01 2.901764e+01
      vertex   1.681000e+02 -9.614000e+01 2.850000e+01
    endloop
  endfacet
  facet normal 0.000000e+00 0.000000e+00 1.000000e+00
    outer loop
      vertex   1.387000e+02 -9.614000e+01 3.050000e+01
      vertex   1.661000e+02 -9.614000e+01 3.050000e+01
      vertex   1.387000e+02 -9.414000e+01 3.050000e+01
    endloop
  endfacet
  facet normal -0.000000e+00 0.000000e+00 1.000000e+00
    outer loop
      vertex   1.387000e+02 -9.414000e+01 3.050000e+01
      vertex   1.661000e+02 -9.614000e+01 3.050000e+01
      vertex   1.661000e+02 -9.414000e+01 3.050000e+01
    endloop
  endfacet
  facet normal -9.914449e-01 0.000000e+00 1.305262e-01
    outer loop
      vertex   1.367000e+02 -9.414000e+01 2.850000e+01
      vertex   1.367000e+02 -9.614000e+01 2.850000e+01
      vertex   1.367681e+02 -9.414000e+01 2.901764e+01
    endloop
  endfacet
  facet normal -9.914449e-01 0.000000e+00 1.305262e-01
    outer loop
      vertex   1.367681e+02 -9.414000e+01 2.901764e+01
      vertex   1.367000e+02 -9.614000e+01 2.850000e+01
      vertex   1.367681e+02 -9.614000e+01 2.901764e+01
    endloop
  endfacet
  facet normal -9.238795e-01 0.000000e+00 3.826834e-01
    outer loop
      vertex   1.367681e+02 -9.414000e+01 2.901764e+01
      vertex   1.367681e+02 -9.614000e+01 2.901764e+01
      vertex   1.369679e+02 -9.414000e+01 2.950000e+01
    endloop
  endfacet
  facet normal -9.238795e-01 0.000000e+00 3.826834e-01
    outer loop
      vertex   1.369679e+02 -9.414000e+01 2.950000e+01
      vertex   1.367681e+02 -9.614000e+01 2.901764e+01
      vertex   1.369679e+02 -9.614000e+01 2.950000e+01
    endloop
  endfacet
  facet normal -7.933533e-01 0.000000e+00 6.087614e-01
    outer loop
      vertex   1.369679e+02 -9.414000e+01 2.950000e+01
      vertex   1.369679e+02 -9.614000e+01 2.950000e+01
      vertex   1.372858e+02 -9.414000e+01 2.991421e+01
    endloop
  endfacet
  facet normal -7.933533e-01 0.000000e+00 6.087614e-01
    outer loop
      vertex   1.372858e+02 -9.414000e+01 2.991421e+01
      vertex   1.369679e+02 -9.614000e+01 2.950000e+01
      vertex   1.372858e+02 -9.614000e+01 2.991421e+01
    endloop
  endfacet
  facet normal -6.087614e-01 0.000000e+00 7.933533e-01
    outer loop
      vertex   1.372858e+02 -9.414000e+01 2.991421e+01
      vertex   1.372858e+02 -9.614000e+01 2.991421e+01
      vertex   1.377000e+02 -9.414000e+01 3.023205e+01
    endloop
  endfacet
  facet normal -6.087614e-01 0.000000e+00 7.933533e-01
    outer loop
      vertex   1.377000e+02 -9.414000e+01 3.023205e+01
      vertex   1.372858e+02 -9.614000e+01 2.991421e+01
      vertex   1.377000e+02 -9.614000e+01 3.023205e+01
    endloop
  endfacet
  facet normal -3.826834e-01 0.000000e+00 9.238795e-01
    outer loop
      vertex   1.377000e+02 -9.414000e+01 3.023205e+01
      vertex   1.377000e+02 -9.614000e+01 3.023205e+01
      vertex   1.381824e+02 -9.414000e+01 3.043185e+01
    endloop
  endfacet
  facet normal -3.826834e-01 0.000000e+00 9.238795e-01
    outer loop
      vertex   1.381824e+02 -9.414000e+01 3.043185e+01
      vertex   1.377000e+02 -9.614000e+01 3.023205e+01
      vertex   1.381824e+02 -9.614000e+01 3.043185e+01
    endloop
  endfacet
  facet normal -1.305262e-01 0.000000e+00 9.914449e-01
    outer loop
      vertex   1.381824e+02 -9.414000e+01 3.043185e+01
      vertex   1.381824e+02 -9.614000e+01 3.043185e+01
      vertex   1.387000e+02 -9.414000e+01 3.050000e+01
    endloop
  endfacet
  facet normal -1.305262e-01 0.000000e+00 9.914449e-01
    outer loop
      vertex   1.387000e+02 -9.414000e+01 3.050000e+01
      vertex   1.381824e+02 -9.614000e+01 3.043185e+01
      vertex   1.387000e+02 -9.614000e+01 3.050000e+01
    endloop
  endfacet
  facet normal -1.000000e+00 0.000000e+00 0.000000e+00
    outer loop
      vertex   1.367000e+02 -9.614000e+01 2.800000e+01
      vertex   1.367000e+02 -9.614000e+01 2.850000e+01
      vertex   1.367000e+02 -9.414000e+01 2.800000e+01
    endloop
  endfacet
  facet normal -1.000000e+00 0.000000e+00 0.000000e+00
    outer loop
      vertex   1.367000e+02 -9.414000e+01 2.800000e+01
      vertex   1.367000e+02 -9.614000e+01 2.850000e+01
      vertex   1.367000e+02 -9.414000e+01 2.850000e+01
    endloop
  endfacet
  facet normal 0.000000e+00 0.000000e+00 1.000000e+00
    outer loop
      vertex   8.770000e+01 -9.614000e+01 2.800000e+01
      vertex   1.367000e+02 -9.614000e+01 2.800000e+01
      vertex   8.770000e+01 -9.414000e+01 2.800000e+01
    endloop
  endfacet
  facet normal -0.000000e+00 0.000000e+00 1.000000e+00
    outer loop
      vertex   8.770000e+01 -9.414000e+01 2.800000e+01
      vertex   1.367000e+02 -9.614000e+01 2.800000e+01
      vertex   1.367000e+02 -9.414000e+01 2.800000e+01
    endloop
  endfacet
  facet normal -9.951847e-01 0.000000e+00 9.801714e-02
    outer loop
      vertex   8.470000e+01 -9.414000e+01 2.500000e+01
      vertex   8.470000e+01 -9.614000e+01 2.500000e+01
      vertex   8.475764e+01 -9.414000e+01 2.558527e+01
    endloop
  endfacet
  facet normal -9.951847e-01 0.000000e+00 9.801714e-02
    outer loop
      vertex   8.475764e+01 -9.414000e+01 2.558527e+01
      vertex   8.470000e+01 -9.614000e+01 2.500000e+01
      vertex   8.475764e+01 -9.614000e+01 2.558527e+01
    endloop
  endfacet
  facet normal -9.569403e-01 0.000000e+00 2.902847e-01
    outer loop
      vertex   8.475764e+01 -9.414000e+01 2.558527e+01
      vertex   8.475764e+01 -9.614000e+01 2.558527e+01
      vertex   8.492836e+01 -9.414000e+01 2.614805e+01
    endloop
  endfacet
  facet normal -9.569403e-01 0.000000e+00 2.902847e-01
    outer loop
      vertex   8.492836e+01 -9.414000e+01 2.614805e+01
      vertex   8.475764e+01 -9.614000e+01 2.558527e+01
      vertex   8.492836e+01 -9.614000e+01 2.614805e+01
    endloop
  endfacet
  facet normal -8.819213e-01 0.000000e+00 4.713967e-01
    outer loop
      vertex   8.492836e+01 -9.414000e+01 2.614805e+01
      vertex   8.492836e+01 -9.614000e+01 2.614805e+01
      vertex   8.520559e+01 -9.414000e+01 2.666671e+01
    endloop
  endfacet
  facet normal -8.819213e-01 0.000000e+00 4.713967e-01
    outer loop
      vertex   8.520559e+01 -9.414000e+01 2.666671e+01
      vertex   8.492836e+01 -9.614000e+01 2.614805e+01
      vertex   8.520559e+01 -9.614000e+01 2.666671e+01
    endloop
  endfacet
  facet normal -7.730105e-01 0.000000e+00 6.343933e-01
    outer loop
      vertex   8.520559e+01 -9.414000e+01 2.666671e+01
      vertex   8.520559e+01 -9.614000e+01 2.666671e+01
      vertex   8.557868e+01 -9.414000e+01 2.712132e+01
    endloop
  endfacet
  facet normal -7.730105e-01 0.000000e+00 6.343933e-01
    outer loop
      vertex   8.557868e+01 -9.414000e+01 2.712132e+01
      vertex   8.520559e+01 -9.614000e+01 2.666671e+01
      vertex   8.557868e+01 -9.614000e+01 2.712132e+01
    endloop
  endfacet
  facet normal -6.343933e-01 0.000000e+00 7.730105e-01
    outer loop
      vertex   8.557868e+01 -9.414000e+01 2.712132e+01
      vertex   8.557868e+01 -9.614000e+01 2.712132e+01
      vertex   8.603329e+01 -9.414000e+01 2.749441e+01
    endloop
  endfacet
  facet normal -6.343933e-01 0.000000e+00 7.730105e-01
    outer loop
      vertex   8.603329e+01 -9.414000e+01 2.749441e+01
      vertex   8.557868e+01 -9.614000e+01 2.712132e+01
      vertex   8.603329e+01 -9.614000e+01 2.749441e+01
    endloop
  endfacet
  facet normal -4.713967e-01 0.000000e+00 8.819213e-01
    outer loop
      vertex   8.603329e+01 -9.414000e+01 2.749441e+01
      vertex   8.603329e+01 -9.614000e+01 2.749441e+01
      vertex   8.655195e+01 -9.414000e+01 2.777164e+01
    endloop
  endfacet
  facet normal -4.713967e-01 0.000000e+00 8.819213e-01
    outer loop
      vertex   8.655195e+01 -9.414000e+01 2.777164e+01
      vertex   8.603329e+01 -9.614000e+01 2.749441e+01
      vertex   8.655195e+01 -9.614000e+01 2.777164e+01
    endloop
  endfacet
  facet normal -2.902847e-01 0.000000e+00 9.569403e-01
    outer loop
      vertex   8.655195e+01 -9.414000e+01 2.777164e+01
      vertex   8.655195e+01 -9.614000e+01 2.777164e+01
      vertex   8.711473e+01 -9.414000e+01 2.794236e+01
    endloop
  endfacet
  facet normal -2.902847e-01 0.000000e+00 9.569403e-01
    outer loop
      vertex   8.711473e+01 -9.414000e+01 2.794236e+01
      vertex   8.655195e+01 -9.614000e+01 2.777164e+01
      vertex   8.711473e+01 -9.614000e+01 2.794236e+01
    endloop
  endfacet
  facet normal -9.801714e-02 0.000000e+00 9.951847e-01
    outer loop
      vertex   8.711473e+01 -9.414000e+01 2.794236e+01
      vertex   8.711473e+01 -9.614000e+01 2.794236e+01
      vertex   8.770000e+01 -9.414000e+01 2.800000e+01
    endloop
  endfacet
  facet normal -9.801714e-02 0.000000e+00 9.951847e-01
    outer loop
      vertex   8.770000e+01 -9.414000e+01 2.800000e+01
      vertex   8.711473e+01 -9.614000e+01 2.794236e+01
      vertex   8.770000e+01 -9.614000e+01 2.800000e+01
    endloop
  endfacet
  facet normal -1.000000e+00 0.000000e+00 0.000000e+00
    outer loop
      vertex   8.470000e+01 -9.614000e+01 1.450000e+01
      vertex   8.470000e+01 -9.614000e+01 2.500000e+01
      vertex   8.470000e+01 -9.414000e+01 1.450000e+01
    endloop
  endfacet
  facet normal -1.000000e+00 0.000000e+00 0.000000e+00
    outer loop
      vertex   8.470000e+01 -9.414000e+01 1.450000e+01
      vertex   8.470000e+01 -9.614000e+01 2.500000e+01
      vertex   8.470000e+01 -9.414000e+01 2.500000e+01
    endloop
  endfacet
  facet normal -1.119645e-01 0.000000e+00 9.937122e-01
    outer loop
      vertex   8.220000e+01 -9.414000e+01 1.200000e+01
      vertex   8.220000e+01 -9.614000e+01 1.200000e+01
      vertex   8.275630e+01 -9.414000e+01 1.206268e+01
    endloop
  endfacet
  facet normal -1.119645e-01 0.000000e+00 9.937122e-01
    outer loop
      vertex   8.275630e+01 -9.414000e+01 1.206268e+01
      vertex   8.220000e+01 -9.614000e+01 1.200000e+01
      vertex   8.275630e+01 -9.614000e+01 1.206268e+01
    endloop
  endfacet
  facet normal -3.302791e-01 0.000000e+00 9.438833e-01
    outer loop
      vertex   8.275630e+01 -9.414000e+01 1.206268e+01
      vertex   8.275630e+01 -9.614000e+01 1.206268e+01
      vertex   8.328471e+01 -9.414000e+01 1.224758e+01
    endloop
  endfacet
  facet normal -3.302791e-01 0.000000e+00 9.438833e-01
    outer loop
      vertex   8.328471e+01 -9.414000e+01 1.224758e+01
      vertex   8.275630e+01 -9.614000e+01 1.206268e+01
      vertex   8.328471e+01 -9.614000e+01 1.224758e+01
    endloop
  endfacet
  facet normal -5.320321e-01 0.000000e+00 8.467242e-01
    outer loop
      vertex   8.328471e+01 -9.414000e+01 1.224758e+01
      vertex   8.328471e+01 -9.614000e+01 1.224758e+01
      vertex   8.375872e+01 -9.414000e+01 1.254542e+01
    endloop
  endfacet
  facet normal -5.320321e-01 0.000000e+00 8.467242e-01
    outer loop
      vertex   8.375872e+01 -9.414000e+01 1.254542e+01
      vertex   8.328471e+01 -9.614000e+01 1.224758e+01
      vertex   8.375872e+01 -9.614000e+01 1.254542e+01
    endloop
  endfacet
  facet normal -7.071068e-01 0.000000e+00 7.071068e-01
    outer loop
      vertex   8.375872e+01 -9.414000e+01 1.254542e+01
      vertex   8.375872e+01 -9.614000e+01 1.254542e+01
      vertex   8.415458e+01 -9.414000e+01 1.294128e+01
    endloop
  endfacet
  facet normal -7.071068e-01 0.000000e+00 7.071068e-01
    outer loop
      vertex   8.415458e+01 -9.414000e+01 1.294128e+01
      vertex   8.375872e+01 -9.614000e+01 1.254542e+01
      vertex   8.415458e+01 -9.614000e+01 1.294128e+01
    endloop
  endfacet
  facet normal -8.467242e-01 0.000000e+00 5.320321e-01
    outer loop
      vertex   8.415458e+01 -9.414000e+01 1.294128e+01
      vertex   8.415458e+01 -9.614000e+01 1.294128e+01
      vertex   8.445242e+01 -9.414000e+01 1.341529e+01
    endloop
  endfacet
  facet normal -8.467242e-01 0.000000e+00 5.320321e-01
    outer loop
      vertex   8.445242e+01 -9.414000e+01 1.341529e+01
      vertex   8.415458e+01 -9.614000e+01 1.294128e+01
      vertex   8.445242e+01 -9.614000e+01 1.341529e+01
    endloop
  endfacet
  facet normal -9.438833e-01 0.000000e+00 3.302791e-01
    outer loop
      vertex   8.445242e+01 -9.414000e+01 1.341529e+01
      vertex   8.445242e+01 -9.614000e+01 1.341529e+01
      vertex   8.463732e+01 -9.414000e+01 1.394370e+01
    endloop
  endfacet
  facet normal -9.438833e-01 0.000000e+00 3.302791e-01
    outer loop
      vertex   8.463732e+01 -9.414000e+01 1.394370e+01
      vertex   8.445242e+01 -9.614000e+01 1.341529e+01
      vertex   8.463732e+01 -9.614000e+01 1.394370e+01
    endloop
  endfacet
  facet normal -9.937122e-01 0.000000e+00 1.119645e-01
    outer loop
      vertex   8.463732e+01 -9.414000e+01 1.394370e+01
      vertex   8.463732e+01 -9.614000e+01 1.394370e+01
      vertex   8.470000e+01 -9.414000e+01 1.450000e+01
    endloop
  endfacet
  facet normal -9.937122e-01 0.000000e+00 1.119645e-01
    outer loop
      vertex   8.470000e+01 -9.414000e+01 1.450000e+01
      vertex   8.463732e+01 -9.614000e+01 1.394370e+01
      vertex   8.470000e+01 -9.614000e+01 1.450000e+01
    endloop
  endfacet
  facet normal -2.368476e-16 0.000000e+00 1.000000e+00
    outer loop
      vertex   6.720000e+01 -9.614000e+01 1.200000e+01
      vertex   8.220000e+01 -9.614000e+01 1.200000e+01
      vertex   6.720000e+01 -9.414000e+01 1.200000e+01
    endloop
  endfacet
  facet normal -2.368476e-16 0.000000e+00 1.000000e+00
    outer loop
      vertex   6.720000e+01 -9.414000e+01 1.200000e+01
      vertex   8.220000e+01 -9.614000e+01 1.200000e+01
      vertex   8.220000e+01 -9.414000e+01 1.200000e+01
    endloop
  endfacet
  facet normal 0.000000e+00 -1.000000e+00 -0.000000e+00
    outer loop
      vertex   6.720000e+01 -9.614000e+01 1.200000e+01
      vertex   6.476268e+01 -9.614000e+01 1.005630e+01
      vertex   8.220000e+01 -9.614000e+01 1.200000e+01
    endloop
  endfacet
  facet normal 0.000000e+00 -1.000000e+00 0.000000e+00
    outer loop
      vertex   8.220000e+01 -9.614000e+01 1.200000e+01
      vertex   6.476268e+01 -9.614000e+01 1.005630e+01
      vertex   6.470000e+01 -9.614000e+01 9.500000e+00
    endloop
  endfacet
  facet normal 0.000000e+00 -1.000000e+00 0.000000e+00
    outer loop
      vertex   8.220000e+01 -9.614000e+01 1.200000e+01
      vertex   6.470000e+01 -9.614000e+01 9.500000e+00
      vertex   6.470000e+01 -9.614000e+01 -4.000000e+00
    endloop
  endfacet
  facet normal 0.000000e+00 -1.000000e+00 -0.000000e+00
    outer loop
      vertex   6.664370e+01 -9.614000e+01 1.193732e+01
      vertex   6.611529e+01 -9.614000e+01 1.175242e+01
      vertex   6.720000e+01 -9.614000e+01 1.200000e+01
    endloop
  endfacet
  facet normal 0.000000e+00 -1.000000e+00 0.000000e+00
    outer loop
      vertex   6.720000e+01 -9.614000e+01 1.200000e+01
      vertex   6.611529e+01 -9.614000e+01 1.175242e+01
      vertex   6.564128e+01 -9.614000e+01 1.145458e+01
    endloop
  endfacet
  facet normal 0.000000e+00 -1.000000e+00 0.000000e+00
    outer loop
      vertex   6.720000e+01 -9.614000e+01 1.200000e+01
      vertex   6.564128e+01 -9.614000e+01 1.145458e+01
      vertex   6.524542e+01 -9.614000e+01 1.105872e+01
    endloop
  endfacet
  facet normal 0.000000e+00 -1.000000e+00 -0.000000e+00
    outer loop
      vertex   6.524542e+01 -9.614000e+01 1.105872e+01
      vertex   6.494758e+01 -9.614000e+01 1.058471e+01
      vertex   6.720000e+01 -9.614000e+01 1.200000e+01
    endloop
  endfacet
  facet normal 0.000000e+00 -1.000000e+00 0.000000e+00
    outer loop
      vertex   6.720000e+01 -9.614000e+01 1.200000e+01
      vertex   6.494758e+01 -9.614000e+01 1.058471e+01
      vertex   6.476268e+01 -9.614000e+01 1.005630e+01
    endloop
  endfacet
  facet normal 0.000000e+00 -1.000000e+00 -0.000000e+00
    outer loop
      vertex   8.220000e+01 -9.614000e+01 1.200000e+01
      vertex   6.470000e+01 -9.614000e+01 -4.000000e+00
      vertex   8.275630e+01 -9.614000e+01 1.206268e+01
    endloop
  endfacet
  facet normal 0.000000e+00 -1.000000e+00 -0.000000e+00
    outer loop
      vertex   8.275630e+01 -9.614000e+01 1.206268e+01
      vertex   6.470000e+01 -9.614000e+01 -4.000000e+00
      vertex   1.681000e+02 -9.614000e+01 -4.000000e+00
    endloop
  endfacet
  facet normal 0.000000e+00 -1.000000e+00 0.000000e+00
    outer loop
      vertex   8.275630e+01 -9.614000e+01 1.206268e+01
      vertex   1.681000e+02 -9.614000e+01 -4.000000e+00
      vertex   8.328471e+01 -9.614000e+01 1.224758e+01
    endloop
  endfacet
  facet normal 0.000000e+00 -1.000000e+00 0.000000e+00
    outer loop
      vertex   8.328471e+01 -9.614000e+01 1.224758e+01
      vertex   1.681000e+02 -9.614000e+01 -4.000000e+00
      vertex   8.375872e+01 -9.614000e+01 1.254542e+01
    endloop
  endfacet
  facet normal 0.000000e+00 -1.000000e+00 0.000000e+00
    outer loop
      vertex   8.375872e+01 -9.614000e+01 1.254542e+01
      vertex   1.681000e+02 -9.614000e+01 -4.000000e+00
      vertex   8.415458e+01 -9.614000e+01 1.294128e+01
    endloop
  endfacet
  facet normal 0.000000e+00 -1.000000e+00 0.000000e+00
    outer loop
      vertex   8.415458e+01 -9.614000e+01 1.294128e+01
      vertex   1.681000e+02 -9.614000e+01 -4.000000e+00
      vertex   8.445242e+01 -9.614000e+01 1.341529e+01
    endloop
  endfacet
  facet normal 0.000000e+00 -1.000000e+00 0.000000e+00
    outer loop
      vertex   8.445242e+01 -9.614000e+01 1.341529e+01
      vertex   1.681000e+02 -9.614000e+01 -4.000000e+00
      vertex   1.367000e+02 -9.614000e+01 2.800000e+01
    endloop
  endfacet
  facet normal 0.000000e+00 -1.000000e+00 0.000000e+00
    outer loop
      vertex   8.445242e+01 -9.614000e+01 1.341529e+01
      vertex   1.367000e+02 -9.614000e+01 2.800000e+01
      vertex   8.463732e+01 -9.614000e+01 1.394370e+01
    endloop
  endfacet
  facet normal 0.000000e+00 -1.000000e+00 0.000000e+00
    outer loop
      vertex   8.463732e+01 -9.614000e+01 1.394370e+01
      vertex   1.367000e+02 -9.614000e+01 2.800000e+01
      vertex   8.470000e+01 -9.614000e+01 1.450000e+01
    endloop
  endfacet
  facet normal 0.000000e+00 -1.000000e+00 0.000000e+00
    outer loop
      vertex   8.470000e+01 -9.614000e+01 1.450000e+01
      vertex   1.367000e+02 -9.614000e+01 2.800000e+01
      vertex   8.470000e+01 -9.614000e+01 2.500000e+01
    endloop
  endfacet
  facet normal 0.000000e+00 -1.000000e+00 0.000000e+00
    outer loop
      vertex   8.470000e+01 -9.614000e+01 2.500000e+01
      vertex   1.367000e+02 -9.614000e+01 2.800000e+01
      vertex   8.770000e+01 -9.614000e+01 2.800000e+01
    endloop
  endfacet
  facet normal 0.000000e+00 -1.000000e+00 0.000000e+00
    outer loop
      vertex   8.470000e+01 -9.614000e+01 2.500000e+01
      vertex   8.770000e+01 -9.614000e+01 2.800000e+01
      vertex   8.475764e+01 -9.614000e+01 2.558527e+01
    endloop
  endfacet
  facet normal 0.000000e+00 -1.000000e+00 0.000000e+00
    outer loop
      vertex   8.475764e+01 -9.614000e+01 2.558527e+01
      vertex   8.770000e+01 -9.614000e+01 2.800000e+01
      vertex   8.492836e+01 -9.614000e+01 2.614805e+01
    endloop
  endfacet
  facet normal 0.000000e+00 -1.000000e+00 0.000000e+00
    outer loop
      vertex   8.492836e+01 -9.614000e+01 2.614805e+01
      vertex   8.770000e+01 -9.614000e+01 2.800000e+01
      vertex   8.520559e+01 -9.614000e+01 2.666671e+01
    endloop
  endfacet
  facet normal 0.000000e+00 -1.000000e+00 0.000000e+00
    outer loop
      vertex   8.520559e+01 -9.614000e+01 2.666671e+01
      vertex   8.770000e+01 -9.614000e+01 2.800000e+01
      vertex   8.557868e+01 -9.614000e+01 2.712132e+01
    endloop
  endfacet
  facet normal 0.000000e+00 -1.000000e+00 0.000000e+00
    outer loop
      vertex   8.557868e+01 -9.614000e+01 2.712132e+01
      vertex   8.770000e+01 -9.614000e+01 2.800000e+01
      vertex   8.603329e+01 -9.614000e+01 2.749441e+01
    endloop
  endfacet
  facet normal 0.000000e+00 -1.000000e+00 0.000000e+00
    outer loop
      vertex   8.603329e+01 -9.614000e+01 2.749441e+01
      vertex   8.770000e+01 -9.614000e+01 2.800000e+01
      vertex   8.655195e+01 -9.614000e+01 2.777164e+01
    endloop
  endfacet
  facet normal 0.000000e+00 -1.000000e+00 0.000000e+00
    outer loop
      vertex   8.655195e+01 -9.614000e+01 2.777164e+01
      vertex   8.770000e+01 -9.614000e+01 2.800000e+01
      vertex   8.711473e+01 -9.614000e+01 2.794236e+01
    endloop
  endfacet
  facet normal 0.000000e+00 -1.000000e+00 0.000000e+00
    outer loop
      vertex   1.681000e+02 -9.614000e+01 -4.000000e+00
      vertex   1.681000e+02 -9.614000e+01 2.850000e+01
      vertex   1.367000e+02 -9.614000e+01 2.800000e+01
    endloop
  endfacet
  facet normal 0.000000e+00 -1.000000e+00 0.000000e+00
    outer loop
      vertex   1.367000e+02 -9.614000e+01 2.800000e+01
      vertex   1.681000e+02 -9.614000e+01 2.850000e+01
      vertex   1.661000e+02 -9.614000e+01 3.050000e+01
    endloop
  endfacet
  facet normal 0.000000e+00 -1.000000e+00 0.000000e+00
    outer loop
      vertex   1.367000e+02 -9.614000e+01 2.800000e+01
      vertex   1.661000e+02 -9.614000e+01 3.050000e+01
      vertex   1.387000e+02 -9.614000e+01 3.050000e+01
    endloop
  endfacet
  facet normal 0.000000e+00 -1.000000e+00 0.000000e+00
    outer loop
      vertex   1.681000e+02 -9.614000e+01 2.850000e+01
      vertex   1.680319e+02 -9.614000e+01 2.901764e+01
      vertex   1.661000e+02 -9.614000e+01 3.050000e+01
    endloop
  endfacet
  facet normal 0.000000e+00 -1.000000e+00 0.000000e+00
    outer loop
      vertex   1.661000e+02 -9.614000e+01 3.050000e+01
      vertex   1.680319e+02 -9.614000e+01 2.901764e+01
      vertex   1.678321e+02 -9.614000e+01 2.950000e+01
    endloop
  endfacet
  facet normal 0.000000e+00 -1.000000e+00 0.000000e+00
    outer loop
      vertex   1.661000e+02 -9.614000e+01 3.050000e+01
      vertex   1.678321e+02 -9.614000e+01 2.950000e+01
      vertex   1.675142e+02 -9.614000e+01 2.991421e+01
    endloop
  endfacet
  facet normal 0.000000e+00 -1.000000e+00 0.000000e+00
    outer loop
      vertex   1.675142e+02 -9.614000e+01 2.991421e+01
      vertex   1.671000e+02 -9.614000e+01 3.023205e+01
      vertex   1.661000e+02 -9.614000e+01 3.050000e+01
    endloop
  endfacet
  facet normal 0.000000e+00 -1.000000e+00 0.000000e+00
    outer loop
      vertex   1.661000e+02 -9.614000e+01 3.050000e+01
      vertex   1.671000e+02 -9.614000e+01 3.023205e+01
      vertex   1.666176e+02 -9.614000e+01 3.043185e+01
    endloop
  endfacet
  facet normal 0.000000e+00 -1.000000e+00 -0.000000e+00
    outer loop
      vertex   1.381824e+02 -9.614000e+01 3.043185e+01
      vertex   1.377000e+02 -9.614000e+01 3.023205e+01
      vertex   1.387000e+02 -9.614000e+01 3.050000e+01
    endloop
  endfacet
  facet normal 0.000000e+00 -1.000000e+00 0.000000e+00
    outer loop
      vertex   1.387000e+02 -9.614000e+01 3.050000e+01
      vertex   1.377000e+02 -9.614000e+01 3.023205e+01
      vertex   1.372858e+02 -9.614000e+01 2.991421e+01
    endloop
  endfacet
  facet normal 0.000000e+00 -1.000000e+00 0.000000e+00
    outer loop
      vertex   1.387000e+02 -9.614000e+01 3.050000e+01
      vertex   1.372858e+02 -9.614000e+01 2.991421e+01
      vertex   1.369679e+02 -9.614000e+01 2.950000e+01
    endloop
  endfacet
  facet normal 0.000000e+00 -1.000000e+00 -0.000000e+00
    outer loop
      vertex   1.369679e+02 -9.614000e+01 2.950000e+01
      vertex   1.367681e+02 -9.614000e+01 2.901764e+01
      vertex   1.387000e+02 -9.614000e+01 3.050000e+01
    endloop
  endfacet
  facet normal 0.000000e+00 -1.000000e+00 0.000000e+00
    outer loop
      vertex   1.387000e+02 -9.614000e+01 3.050000e+01
      vertex   1.367681e+02 -9.614000e+01 2.901764e+01
      vertex   1.367000e+02 -9.614000e+01 2.850000e+01
    endloop
  endfacet
  facet normal 0.000000e+00 -1.000000e+00 0.000000e+00
    outer loop
      vertex   1.387000e+02 -9.614000e+01 3.050000e+01
      vertex   1.367000e+02 -9.614000e+01 2.850000e+01
      vertex   1.367000e+02 -9.614000e+01 2.800000e+01
    endloop
  endfacet
  facet normal 0.000000e+00 1.000000e+00 0.000000e+00
    outer loop
      vertex   8.220000e+01 -9.414000e+01 1.200000e+01
      vertex   6.476268e+01 -9.414000e+01 1.005630e+01
      vertex   6.720000e+01 -9.414000e+01 1.200000e+01
    endloop
  endfacet
  facet normal 0.000000e+00 1.000000e+00 0.000000e+00
    outer loop
      vertex   6.720000e+01 -9.414000e+01 1.200000e+01
      vertex   6.476268e+01 -9.414000e+01 1.005630e+01
      vertex   6.494758e+01 -9.414000e+01 1.058471e+01
    endloop
  endfacet
  facet normal 0.000000e+00 1.000000e+00 0.000000e+00
    outer loop
      vertex   6.720000e+01 -9.414000e+01 1.200000e+01
      vertex   6.494758e+01 -9.414000e+01 1.058471e+01
      vertex   6.524542e+01 -9.414000e+01 1.105872e+01
    endloop
  endfacet
  facet normal 0.000000e+00 1.000000e+00 0.000000e+00
    outer loop
      vertex   8.275630e+01 -9.414000e+01 1.206268e+01
      vertex   6.470000e+01 -9.414000e+01 -4.000000e+00
      vertex   8.220000e+01 -9.414000e+01 1.200000e+01
    endloop
  endfacet
  facet normal 0.000000e+00 1.000000e+00 0.000000e+00
    outer loop
      vertex   8.220000e+01 -9.414000e+01 1.200000e+01
      vertex   6.470000e+01 -9.414000e+01 -4.000000e+00
      vertex   6.470000e+01 -9.414000e+01 9.500000e+00
    endloop
  endfacet
  facet normal 0.000000e+00 1.000000e+00 0.000000e+00
    outer loop
      vertex   8.220000e+01 -9.414000e+01 1.200000e+01
      vertex   6.470000e+01 -9.414000e+01 9.500000e+00
      vertex   6.476268e+01 -9.414000e+01 1.005630e+01
    endloop
  endfacet
  facet normal 0.000000e+00 1.000000e+00 0.000000e+00
    outer loop
      vertex   6.470000e+01 -9.414000e+01 -4.000000e+00
      vertex   8.275630e+01 -9.414000e+01 1.206268e+01
      vertex   1.681000e+02 -9.414000e+01 -4.000000e+00
    endloop
  endfacet
  facet normal 0.000000e+00 1.000000e+00 0.000000e+00
    outer loop
      vertex   1.681000e+02 -9.414000e+01 -4.000000e+00
      vertex   8.275630e+01 -9.414000e+01 1.206268e+01
      vertex   8.328471e+01 -9.414000e+01 1.224758e+01
    endloop
  endfacet
  facet normal 0.000000e+00 1.000000e+00 0.000000e+00
    outer loop
      vertex   1.681000e+02 -9.414000e+01 -4.000000e+00
      vertex   8.328471e+01 -9.414000e+01 1.224758e+01
      vertex   8.375872e+01 -9.414000e+01 1.254542e+01
    endloop
  endfacet
  facet normal -0.000000e+00 1.000000e+00 0.000000e+00
    outer loop
      vertex   8.375872e+01 -9.414000e+01 1.254542e+01
      vertex   8.415458e+01 -9.414000e+01 1.294128e+01
      vertex   1.681000e+02 -9.414000e+01 -4.000000e+00
    endloop
  endfacet
  facet normal 0.000000e+00 1.000000e+00 0.000000e+00
    outer loop
      vertex   1.681000e+02 -9.414000e+01 -4.000000e+00
      vertex   8.415458e+01 -9.414000e+01 1.294128e+01
      vertex   8.445242e+01 -9.414000e+01 1.341529e+01
    endloop
  endfacet
  facet normal 0.000000e+00 1.000000e+00 0.000000e+00
    outer loop
      vertex   1.681000e+02 -9.414000e+01 -4.000000e+00
      vertex   8.445242e+01 -9.414000e+01 1.341529e+01
      vertex   1.367000e+02 -9.414000e+01 2.800000e+01
    endloop
  endfacet
  facet normal 0.000000e+00 1.000000e+00 0.000000e+00
    outer loop
      vertex   1.367000e+02 -9.414000e+01 2.800000e+01
      vertex   8.445242e+01 -9.414000e+01 1.341529e+01
      vertex   8.463732e+01 -9.414000e+01 1.394370e+01
    endloop
  endfacet
  facet normal 0.000000e+00 1.000000e+00 0.000000e+00
    outer loop
      vertex   1.367000e+02 -9.414000e+01 2.800000e+01
      vertex   8.463732e+01 -9.414000e+01 1.394370e+01
      vertex   8.470000e+01 -9.414000e+01 1.450000e+01
    endloop
  endfacet
  facet normal 0.000000e+00 1.000000e+00 0.000000e+00
    outer loop
      vertex   8.470000e+01 -9.414000e+01 1.450000e+01
      vertex   8.470000e+01 -9.414000e+01 2.500000e+01
      vertex   1.367000e+02 -9.414000e+01 2.800000e+01
    endloop
  endfacet
  facet normal 0.000000e+00 1.000000e+00 0.000000e+00
    outer loop
      vertex   1.367000e+02 -9.414000e+01 2.800000e+01
      vertex   8.470000e+01 -9.414000e+01 2.500000e+01
      vertex   8.770000e+01 -9.414000e+01 2.800000e+01
    endloop
  endfacet
  facet normal 0.000000e+00 1.000000e+00 0.000000e+00
    outer loop
      vertex   8.770000e+01 -9.414000e+01 2.800000e+01
      vertex   8.470000e+01 -9.414000e+01 2.500000e+01
      vertex   8.475764e+01 -9.414000e+01 2.558527e+01
    endloop
  endfacet
  facet normal 0.000000e+00 1.000000e+00 0.000000e+00
    outer loop
      vertex   8.770000e+01 -9.414000e+01 2.800000e+01
      vertex   8.475764e+01 -9.414000e+01 2.558527e+01
      vertex   8.492836e+01 -9.414000e+01 2.614805e+01
    endloop
  endfacet
  facet normal 0.000000e+00 1.000000e+00 0.000000e+00
    outer loop
      vertex   8.492836e+01 -9.414000e+01 2.614805e+01
      vertex   8.520559e+01 -9.414000e+01 2.666671e+01
      vertex   8.770000e+01 -9.414000e+01 2.800000e+01
    endloop
  endfacet
  facet normal 0.000000e+00 1.000000e+00 0.000000e+00
    outer loop
      vertex   8.770000e+01 -9.414000e+01 2.800000e+01
      vertex   8.520559e+01 -9.414000e+01 2.666671e+01
      vertex   8.557868e+01 -9.414000e+01 2.712132e+01
    endloop
  endfacet
  facet normal 0.000000e+00 1.000000e+00 0.000000e+00
    outer loop
      vertex   8.770000e+01 -9.414000e+01 2.800000e+01
      vertex   8.557868e+01 -9.414000e+01 2.712132e+01
      vertex   8.603329e+01 -9.414000e+01 2.749441e+01
    endloop
  endfacet
  facet normal 0.000000e+00 1.000000e+00 0.000000e+00
    outer loop
      vertex   8.603329e+01 -9.414000e+01 2.749441e+01
      vertex   8.655195e+01 -9.414000e+01 2.777164e+01
      vertex   8.770000e+01 -9.414000e+01 2.800000e+01
    endloop
  endfacet
  facet normal 0.000000e+00 1.000000e+00 0.000000e+00
    outer loop
      vertex   8.770000e+01 -9.414000e+01 2.800000e+01
      vertex   8.655195e+01 -9.414000e+01 2.777164e+01
      vertex   8.711473e+01 -9.414000e+01 2.794236e+01
    endloop
  endfacet
  facet normal -0.000000e+00 1.000000e+00 0.000000e+00
    outer loop
      vertex   1.367000e+02 -9.414000e+01 2.850000e+01
      vertex   1.387000e+02 -9.414000e+01 3.050000e+01
      vertex   1.367000e+02 -9.414000e+01 2.800000e+01
    endloop
  endfacet
  facet normal 0.000000e+00 1.000000e+00 0.000000e+00
    outer loop
      vertex   1.367000e+02 -9.414000e+01 2.800000e+01
      vertex   1.387000e+02 -9.414000e+01 3.050000e+01
      vertex   1.661000e+02 -9.414000e+01 3.050000e+01
    endloop
  endfacet
  facet normal 0.000000e+00 1.000000e+00 0.000000e+00
    outer loop
      vertex   1.367000e+02 -9.414000e+01 2.800000e+01
      vertex   1.661000e+02 -9.414000e+01 3.050000e+01
      vertex   1.681000e+02 -9.414000e+01 2.850000e+01
    endloop
  endfacet
  facet normal 0.000000e+00 1.000000e+00 0.000000e+00
    outer loop
      vertex   1.681000e+02 -9.414000e+01 2.850000e+01
      vertex   1.661000e+02 -9.414000e+01 3.050000e+01
      vertex   1.680319e+02 -9.414000e+01 2.901764e+01
    endloop
  endfacet
  facet normal 0.000000e+00 1.000000e+00 0.000000e+00
    outer loop
      vertex   1.680319e+02 -9.414000e+01 2.901764e+01
      vertex   1.661000e+02 -9.414000e+01 3.050000e+01
      vertex   1.678321e+02 -9.414000e+01 2.950000e+01
    endloop
  endfacet
  facet normal 0.000000e+00 1.000000e+00 0.000000e+00
    outer loop
      vertex   1.678321e+02 -9.414000e+01 2.950000e+01
      vertex   1.661000e+02 -9.414000e+01 3.050000e+01
      vertex   1.675142e+02 -9.414000e+01 2.991421e+01
    endloop
  endfacet
  facet normal 0.000000e+00 1.000000e+00 0.000000e+00
    outer loop
      vertex   1.675142e+02 -9.414000e+01 2.991421e+01
      vertex   1.661000e+02 -9.414000e+01 3.050000e+01
      vertex   1.671000e+02 -9.414000e+01 3.023205e+01
    endloop
  endfacet
  facet normal 0.000000e+00 1.000000e+00 0.000000e+00
    outer loop
      vertex   1.671000e+02 -9.414000e+01 3.023205e+01
      vertex   1.661000e+02 -9.414000e+01 3.050000e+01
      vertex   1.666176e+02 -9.414000e+01 3.043185e+01
    endloop
  endfacet
  facet normal 0.000000e+00 1.000000e+00 0.000000e+00
    outer loop
      vertex   1.367000e+02 -9.414000e+01 2.850000e+01
      vertex   1.367681e+02 -9.414000e+01 2.901764e+01
      vertex   1.387000e+02 -9.414000e+01 3.050000e+01
    endloop
  endfacet
  facet normal 0.000000e+00 1.000000e+00 0.000000e+00
    outer loop
      vertex   1.387000e+02 -9.414000e+01 3.050000e+01
      vertex   1.367681e+02 -9.414000e+01 2.901764e+01
      vertex   1.369679e+02 -9.414000e+01 2.950000e+01
    endloop
  endfacet
  facet normal 0.000000e+00 1.000000e+00 0.000000e+00
    outer loop
      vertex   1.387000e+02 -9.414000e+01 3.050000e+01
      vertex   1.369679e+02 -9.414000e+01 2.950000e+01
      vertex   1.372858e+02 -9.414000e+01 2.991421e+01
    endloop
  endfacet
  facet normal 0.000000e+00 1.000000e+00 0.000000e+00
    outer loop
      vertex   1.372858e+02 -9.414000e+01 2.991421e+01
      vertex   1.377000e+02 -9.414000e+01 3.023205e+01
      vertex   1.387000e+02 -9.414000e+01 3.050000e+01
    endloop
  endfacet
  facet normal 0.000000e+00 1.000000e+00 0.000000e+00
    outer loop
      vertex   1.387000e+02 -9.414000e+01 3.050000e+01
      vertex   1.377000e+02 -9.414000e+01 3.023205e+01
      vertex   1.381824e+02 -9.414000e+01 3.043185e+01
    endloop
  endfacet
  facet normal 0.000000e+00 1.000000e+00 0.000000e+00
    outer loop
      vertex   1.681000e+02 -9.414000e+01 2.850000e+01
      vertex   1.681000e+02 -9.414000e+01 -4.000000e+00
      vertex   1.367000e+02 -9.414000e+01 2.800000e+01
    endloop
  endfacet
  facet normal 0.000000e+00 1.000000e+00 0.000000e+00
    outer loop
      vertex   6.524542e+01 -9.414000e+01 1.105872e+01
      vertex   6.564128e+01 -9.414000e+01 1.145458e+01
      vertex   6.720000e+01 -9.414000e+01 1.200000e+01
    endloop
  endfacet
  facet normal 0.000000e+00 1.000000e+00 0.000000e+00
    outer loop
      vertex   6.720000e+01 -9.414000e+01 1.200000e+01
      vertex   6.564128e+01 -9.414000e+01 1.145458e+01
      vertex   6.611529e+01 -9.414000e+01 1.175242e+01
    endloop
  endfacet
  facet normal 0.000000e+00 1.000000e+00 0.000000e+00
    outer loop
      vertex   6.720000e+01 -9.414000e+01 1.200000e+01
      vertex   6.611529e+01 -9.414000e+01 1.175242e+01
      vertex   6.664370e+01 -9.414000e+01 1.193732e+01
    endloop
  endfacet
endsolid
